<svg width="703" height="771" viewBox="0 0 703 771" fill="none" xmlns="http://www.w3.org/2000/svg">
<g filter="url(#filter0_dd_27_254)">
<mask id="mask0_27_254" style="mask-type:alpha" maskUnits="userSpaceOnUse" x="28" y="12" width="647" height="715">
<path d="M28.5 12.5H660C668.008 12.5 674.5 18.9919 674.5 27V712C674.5 720.008 668.008 726.5 660 726.5H28.5V12.5Z" fill="#89FC00" stroke="#D9D9D9"/>
</mask>
<g mask="url(#mask0_27_254)">
<rect x="28" y="12" width="647" height="715" fill="#04E762"/>
<path d="M368.258 -22.8037L969.245 -15.2115L561.758 504.967L368.258 -22.8037Z" fill="#F5B700"/>
<ellipse cx="471.63" cy="-23.9693" rx="203.37" ry="355.307" fill="#89FC00"/>
<path d="M496.067 328.618C411.203 355.719 303.677 311.306 197.143 205.149C90.6092 98.9915 -6.20566 -60.2143 -72.0033 -237.445C-137.801 -414.676 -167.192 -595.413 -153.71 -739.898C-140.228 -884.383 -84.978 -980.779 -0.114185 -1007.88L247.976 -339.632L496.067 328.618Z" fill="#008BF8"/>
<path d="M437.873 409.839L271.699 1046.38L-248.448 563.961L437.873 409.839Z" fill="#89FC00"/>
<path d="M437.625 410.111L-23.6415 802.154L-248.407 564.237L437.625 410.111Z" fill="#008BF8"/>
<path d="M776.359 311.16C763.234 304.132 746.037 303.923 725.747 310.546C705.457 317.169 682.473 330.493 658.107 349.757C633.741 369.022 608.47 393.85 583.738 422.825C559.005 451.799 535.294 484.351 513.96 518.623C492.625 552.896 474.084 588.216 459.396 622.569C444.708 656.922 434.161 689.634 428.355 718.838C422.55 748.041 421.6 773.164 425.561 792.773C429.522 812.381 438.316 826.09 451.44 833.118L613.899 572.139L776.359 311.16Z" fill="#008BF8"/>
<path d="M629.304 747.242C605.308 777.355 580.508 803.555 556.321 824.344C532.134 845.133 509.032 860.105 488.336 868.405C467.639 876.705 449.753 878.17 435.698 872.717C421.643 867.265 411.695 855.001 406.421 836.625C401.147 818.25 400.652 794.124 404.962 765.623C409.273 737.123 418.305 704.807 431.544 670.521C444.782 636.234 461.968 600.649 482.119 565.796C502.27 530.943 524.992 497.506 548.988 467.392L589.146 607.317L629.304 747.242Z" fill="#89FC00"/>
<path d="M590.331 609.498L663.173 867.963L434.938 834.436L590.331 609.498Z" fill="#F5B700"/>
<ellipse cx="76.4584" cy="233.272" rx="76.4584" ry="233.272" transform="matrix(0.947472 -0.31984 0.36531 0.930886 -138.479 216.191)" fill="#F5B700"/>
<path d="M121.176 481.492C126.966 500.477 130.953 519.569 132.908 537.676C134.864 555.784 134.749 572.553 132.572 587.027C130.395 601.5 126.197 613.394 120.219 622.03C114.241 630.665 106.599 635.874 97.7299 637.357C88.8606 638.84 78.9378 636.57 68.5279 630.675C58.118 624.78 47.4249 615.376 37.0591 603C26.6933 590.625 16.8579 575.519 8.11433 558.547C-0.629233 541.575 -8.10967 523.068 -13.8999 504.082L53.6381 492.787L121.176 481.492Z" fill="#04E762"/>
</g>
</g>
<defs>
<filter id="filter0_dd_27_254" x="0" y="0" width="703" height="771" filterUnits="userSpaceOnUse" color-interpolation-filters="sRGB">
<feFlood flood-opacity="0" result="BackgroundImageFix"/>
<feColorMatrix in="SourceAlpha" type="matrix" values="0 0 0 0 0 0 0 0 0 0 0 0 0 0 0 0 0 0 127 0" result="hardAlpha"/>
<feMorphology radius="4" operator="erode" in="SourceAlpha" result="effect1_dropShadow_27_254"/>
<feOffset dy="4"/>
<feGaussianBlur stdDeviation="2"/>
<feComposite in2="hardAlpha" operator="out"/>
<feColorMatrix type="matrix" values="0 0 0 0 0.0470588 0 0 0 0 0.0470588 0 0 0 0 0.0509804 0 0 0 0.05 0"/>
<feBlend mode="normal" in2="BackgroundImageFix" result="effect1_dropShadow_27_254"/>
<feColorMatrix in="SourceAlpha" type="matrix" values="0 0 0 0 0 0 0 0 0 0 0 0 0 0 0 0 0 0 127 0" result="hardAlpha"/>
<feMorphology radius="4" operator="erode" in="SourceAlpha" result="effect2_dropShadow_27_254"/>
<feOffset dy="16"/>
<feGaussianBlur stdDeviation="16"/>
<feComposite in2="hardAlpha" operator="out"/>
<feColorMatrix type="matrix" values="0 0 0 0 0.0470588 0 0 0 0 0.0470588 0 0 0 0 0.0509804 0 0 0 0.1 0"/>
<feBlend mode="normal" in2="effect1_dropShadow_27_254" result="effect2_dropShadow_27_254"/>
<feBlend mode="normal" in="SourceGraphic" in2="effect2_dropShadow_27_254" result="shape"/>
</filter>
</defs>
</svg>
